# xmcd
# Copyright (C) 1995-1998 Ti Kan
#
# Track frame offsets:
#       150
#       17681
#       31678
#       38599
#       50431
#       62037
#       77560
#       92688
#       110207
#       125201
#       134969
#       156295
#
# Disc length: 2255 seconds
#
# Revision: 0
# Processed by: cddbd v1.5.2PL0 Copyright (c) Steve Scherf et al.
# Submitted via: CD-Import v1.0
#
DISCID=a208cd0c
DTITLE=Various Artist - Micro Music Vol. 4
DYEAR=1900
DGENRE=
TTITLE0=Lo-Bat. - A Room, Broom, Guy And A Mirror
TTITLE1=Egg In Space - Say Hello
TTITLE2=Entry No. 35 - Sergeeo_-_Giant_Steps_Chiptune
TTITLE3=Flegmatical - Sid Tha Kid
TTITLE4=A Boy And His Sid - Sid-Hop
TTITLE5=Sidabitball - Screamclub - Smalltown Girl
TTITLE6=Tante Renate - Sommer 2
TTITLE7=Bud Melvin - Sun Salutation
TTITLE8=Sebastian_Svahn - Sweet_C64
TTITLE9=Plasmaboy - Tag Av Dig Hatten
TTITLE10=Blac_Letter - Treppenhausgeländer
TTITLE11=Talk To Animals - Wolves
EXTD=
EXTT0=
EXTT1=
EXTT2=
EXTT3=
EXTT4=
EXTT5=
EXTT6=
EXTT7=
EXTT8=
EXTT9=
EXTT10=
EXTT11=
PLAYORDER=
